<svg xmlns="http://www.w3.org/2000/svg" width="195.2" height="231.616" viewBox="0 0 195.2 231.616">
  <g id="Android_robot" transform="translate(146.6 73.324)">
    <g id="Grupo_38" data-name="Grupo 38" transform="translate(-143 -68.43)">
      <g id="Grupo_36" data-name="Grupo 36" transform="translate(34.182 16.716)">
        <ellipse id="Elipse_23" data-name="Elipse 23" cx="59.818" cy="55.217" rx="59.818" ry="55.217" fill="#e6e6e6" stroke="#fff" stroke-width="14.4"/>
        <rect id="Retângulo_53" data-name="Retângulo 53" width="119.636" height="119.636" rx="22" transform="translate(0 41.413)" fill="#e6e6e6" stroke="#fff" stroke-width="14.4"/>
      </g>
      <g id="Grupo_37" data-name="Grupo 37" transform="translate(188 223.122) rotate(180)">
        <rect id="Retângulo_54" data-name="Retângulo 54" width="8.545" height="56.531" rx="4.273" transform="translate(102.049 173.678) rotate(-29)" fill="#e6e6e6" stroke="#fff" stroke-width="7.2"/>
        <rect id="c" width="31.552" height="87.427" rx="15.776" stroke-width="7.2" fill="#e6e6e6" stroke="#fff" transform="translate(0 63.762)"/>
        <rect id="Retângulo_55" data-name="Retângulo 55" width="31.552" height="87.427" rx="15.776" transform="translate(55.874)" fill="#e6e6e6" stroke="#fff" stroke-width="7.2"/>
      </g>
      <g id="a">
        <rect id="Retângulo_56" data-name="Retângulo 56" width="8.545" height="56.531" rx="4.273" transform="matrix(0.875, 0.485, -0.485, 0.875, 129.456, 0)" fill="#e6e6e6" stroke="#fff" stroke-width="7.2"/>
        <rect id="c-2" data-name="c" width="31.552" height="87.427" rx="15.776" transform="translate(0 71.933)" fill="#e6e6e6" stroke="#fff" stroke-width="7.2"/>
        <rect id="Retângulo_57" data-name="Retângulo 57" width="31.552" height="87.427" rx="15.776" transform="translate(55.874 135.695)" fill="#e6e6e6" stroke="#fff" stroke-width="7.2"/>
      </g>
      <g id="b" transform="translate(34.182 16.716)">
        <ellipse id="Elipse_24" data-name="Elipse 24" cx="59.818" cy="55.217" rx="59.818" ry="55.217" fill="#e6e6e6"/>
        <rect id="Retângulo_58" data-name="Retângulo 58" width="119.636" height="119.636" rx="22" transform="translate(0 41.413)" fill="#e6e6e6"/>
      </g>
    </g>
    <g id="Grupo_39" data-name="Grupo 39" transform="translate(-111.448 -26.077)">
      <path id="Caminho_15" data-name="Caminho 15" d="M-95,44.5H29.9" transform="translate(95 -12.619)" fill="#e6e6e6" stroke="#fff" stroke-width="7.2"/>
      <circle id="Elipse_25" data-name="Elipse 25" cx="2.629" cy="2.629" r="2.629" transform="translate(32.21 0)" fill="#e6e6e6" stroke="#fff" stroke-width="7.2"/>
      <circle id="Elipse_26" data-name="Elipse 26" cx="2.629" cy="2.629" r="2.629" transform="translate(87.427 0)" fill="#e6e6e6" stroke="#fff" stroke-width="7.2"/>
    </g>
  </g>
</svg>
