<svg xmlns="http://www.w3.org/2000/svg" width="119" height="140.132" viewBox="0 0 119 140.132">
  <g id="linux-logo" transform="translate(-38.578 -0.001)">
    <g id="Grupo_40" data-name="Grupo 40" transform="translate(38.578 0.001)">
      <path id="Caminho_16" data-name="Caminho 16" d="M156.621,117.333a10.182,10.182,0,0,0-2.423-1.916c-.157-.1-.587-.35-1.288-.739s-1.263-.73-1.682-1.018a11.96,11.96,0,0,1-1.642-1.486,9.1,9.1,0,0,1-1.6-2.229,17.832,17.832,0,0,1-1.134-3.166,19.041,19.041,0,0,1-.625-4.418q-1.1.935-1.212,3.714a12.515,12.515,0,0,0,1.174,5.668,6.448,6.448,0,0,0,3.87,3.754,19.13,19.13,0,0,1,4.027,1.837,4.484,4.484,0,0,1,1.955,2.228q.43,1.254-1.447,2.7a21.742,21.742,0,0,1-6.021,2.857,51.456,51.456,0,0,0-8.094,3.322,56.987,56.987,0,0,0-7,5.2,11.315,11.315,0,0,1-6.648,2.777,6.43,6.43,0,0,1-5.707-2.579q-2.19-2.775-1.409-7.859,1.486-9.773-.076-15.247a15.537,15.537,0,0,1-.547-7.585q.7-3.281,2.189-3.829t3.205,2.344c.1.26.338.769.7,1.525a10.259,10.259,0,0,0,.9,1.6A14.8,14.8,0,0,0,127.144,106a3.907,3.907,0,0,0,1.76,1.057,10.819,10.819,0,0,0,2.463.39,9.1,9.1,0,0,0,4.77-1.095,9.6,9.6,0,0,0,3.167-2.619q1.054-1.448,2.111-2.776a3.715,3.715,0,0,1,1.838-1.487q.859-.153,1.564-1.72a13.684,13.684,0,0,0,.938-4.339,27.385,27.385,0,0,0-.39-6.607,67.724,67.724,0,0,0-4.653-14.936,44,44,0,0,0-7.78-12.746q-7.741-8.209-10.4-17.046a50.506,50.506,0,0,1-2.344-16.733,24.516,24.516,0,0,0-2.306-11.534,22.642,22.642,0,0,0-7.155-9.5,20.52,20.52,0,0,0-6.958-3.245A29.191,29.191,0,0,0,95.479.006a17.179,17.179,0,0,0-8.131,1.642Q81.092,5.011,79.059,9.82a28.783,28.783,0,0,0-1.877,11.846q.314,15.482,1.252,24.24-1.1,4.067-9.7,15.247a19.228,19.228,0,0,0-3.05,4.223,44.153,44.153,0,0,0-2.345,4.77q-.861,2.11-2.307,6.1t-2.072,5.629a20.348,20.348,0,0,1-1.72,3.286,22.215,22.215,0,0,0-1.877,3.673,12.285,12.285,0,0,0-.781,4.066,13.084,13.084,0,0,0,.157,2.971q.312,1.879,1.172,1.174,3.52-2.659,8.836,3.129Q68.5,104.238,77.964,119.1q.782,1.329,1.563,2.856a21.844,21.844,0,0,1,1.486,4.064,14.219,14.219,0,0,1,.586,4.576,5.781,5.781,0,0,1-1.8,3.753,8.478,8.478,0,0,1-5.043,2.189,12.973,12.973,0,0,1-4.34-.313q-2.541-.547-6.451-1.8T58.181,132.7q-2.735-.627-7.78-1.6t-6.608-1.447q-2.658-.7-2.892-2.033-.235-1.1,1.095-3.752a10.245,10.245,0,0,0,1.329-3.832,6.369,6.369,0,0,0-.079-1.721,6.687,6.687,0,0,0-.351-1.33q-.2-.468-.665-1.408a12.112,12.112,0,0,1-.626-1.407q-1.407-3.286-.391-4.458.7-1.017,3.362-.781a10.144,10.144,0,0,0,6.49-1.174q4.143-2.58,2.5-8.289a6.932,6.932,0,0,1-.939,3.988,10.81,10.81,0,0,1-3.284,2.738,11.037,11.037,0,0,1-4.691.939q-3.362.156-4.457,1.095a2.812,2.812,0,0,0-.821,2.112,9.877,9.877,0,0,0,.352,2.855q.39,1.446.781,3.323a12.151,12.151,0,0,1,.313,3.129,23.33,23.33,0,0,1-1.408,4.26q-1.329,3.4-.547,5.2A3.829,3.829,0,0,0,40.2,130.63a8.575,8.575,0,0,0,2.619,1.135q1.68.47,3.089.742t3.909.7q2.5.428,3.988.742a80.615,80.615,0,0,1,11.416,3.363q6.412,2.347,8.679,2.423a8.665,8.665,0,0,0,4.184-.9,15.03,15.03,0,0,0,3.4-2.228,14.158,14.158,0,0,1,4.182-2.346,17.952,17.952,0,0,1,6.217-1.173q1.564-.077,4.535-.2t4.457-.117q6.724,0,10.164.077a9.049,9.049,0,0,1,3.676.744,3.479,3.479,0,0,1,1.72,1.524,10.043,10.043,0,0,0,1.292,1.995,6.723,6.723,0,0,0,2.3,1.837,13.82,13.82,0,0,0,6.96,1.134q3.987-.273,5.317-1.525a75.979,75.979,0,0,1,5.9-5,41.394,41.394,0,0,1,6.686-4.379q.624-.315,2.111-1.018t2.5-1.213q1.017-.509,2.462-1.291a20.134,20.134,0,0,0,2.347-1.447,22.621,22.621,0,0,0,1.837-1.525,4.122,4.122,0,0,0,1.213-1.72,4.514,4.514,0,0,0,.2-1.759A3.374,3.374,0,0,0,156.621,117.333Zm-41.91-75.574c.156-.1.261-.143.312-.117a1.594,1.594,0,0,1,.312.313c.157.182.3.352.431.509s.311.365.546.625a3.268,3.268,0,0,0,.741.626,2.957,2.957,0,0,0,1.135.43,2.312,2.312,0,0,1,1.018.39,1.561,1.561,0,0,1,.507.9A2.162,2.162,0,0,1,119.443,47a1.128,1.128,0,0,1-1.136.626,5.984,5.984,0,0,1-3.049-2.463Q113.618,43.009,114.711,41.758Zm-9.7-30.377a2.508,2.508,0,0,0,.468-.821,1.782,1.782,0,0,0,.039-.978,1.71,1.71,0,0,1,.078-1.016.98.98,0,0,1,.9-.586,3.214,3.214,0,0,1,1.877,1.173c.156.1.4.261.74.469a2.982,2.982,0,0,1,.7.547.677.677,0,0,1,.2.391.979.979,0,0,1-.7.548,4.274,4.274,0,0,1-1.172.157,1.582,1.582,0,0,0-.7.078,3.925,3.925,0,0,0-1.174.7q-.547.47-.859.7a.477.477,0,0,1-.626,0q-.312-.47-.234-.664A3.956,3.956,0,0,1,105.014,11.382ZM67.169,69.91a7.7,7.7,0,0,0,.781-1.016,4.656,4.656,0,0,0,.43-1.056,6.347,6.347,0,0,1,.352-.978.381.381,0,0,1,.47-.235c.1-.026.181.026.235.156l.078.2v.235a1.691,1.691,0,0,1-.039.313,1.406,1.406,0,0,1-.117.352,2.383,2.383,0,0,0-.156.469c-.052.208-.1.391-.157.547a3.925,3.925,0,0,1-.977,1.408q-.665.625-.978.547C66.778,70.745,66.8,70.43,67.169,69.91Zm51.136,48.245a57.181,57.181,0,0,1-1.056,7.038q-.9,4.534-1.135,6.02-1.642-.08-1.876-1.213a5.381,5.381,0,0,1,.469-2.932,32.731,32.731,0,0,0,1.8-7.194q.159-3.6-.78-4.066-.864-.625-2.66,2.345-3.443,5.631-13.84,6.8-9.381,1.251-12.98-2.816a1.5,1.5,0,0,0-1.563-.194,2.219,2.219,0,0,0-1.016.74c-.051.105,0,.261.157.47s.4.521.743.938a6.853,6.853,0,0,1,.821,1.253q3.051,5.316-.547,7.193a21.23,21.23,0,0,0-.547-5.511,14.276,14.276,0,0,0-2.189-4.223,35.87,35.87,0,0,1-2.267-3.479,4.9,4.9,0,0,0,4.652-5.16,4.3,4.3,0,0,0-1.368-2.972q-.7-.7-7.272-5.982a81.147,81.147,0,0,1-8.131-7.076q-.314-.313-1.877-1.564a6.342,6.342,0,0,1-1.955-2.189q-3.6-7.894-.782-12.978l.312-.391q.39-.077.078,1.408a15.547,15.547,0,0,0-.312,4.379q.312,4.927,2.815,7.349,1.643,1.645,2.268-.234.47-.627.43-4.615t.118-5.395a40.393,40.393,0,0,1,3.714-11.024q3.088-6.569,4.887-7.038a6.657,6.657,0,0,1-.9-4.927,13.673,13.673,0,0,1,1.642-4.535q1.133-1.876,2.306-4.339a10.461,10.461,0,0,0,1.173-4.418,2.742,2.742,0,0,1,.079-.782q.234-.7,1.955,1.72,3.284,4.849,4.927,5.709a4.006,4.006,0,0,0,3.831-.079,32.369,32.369,0,0,0,5.2-3.362,35.142,35.142,0,0,1,5.278-3.44,5.585,5.585,0,0,0,.744-.352c.337-.181.6-.312.78-.391s.416-.195.7-.351.506-.287.663-.391a5.5,5.5,0,0,0,.469-.352,1.062,1.062,0,0,0,.313-.391.957.957,0,0,0,.079-.352,1.031,1.031,0,0,0-.666-.86,2.115,2.115,0,0,0-1.368.2,18.22,18.22,0,0,0-1.916.938q-1.054.586-2.345,1.329T97.739,47.78a22.5,22.5,0,0,1-2.815,1.1,11.664,11.664,0,0,1-2.815.547,7.162,7.162,0,0,1-5.238-1.72,5.853,5.853,0,0,1-1.329-1.486q-.079-.312.7-.156a21.067,21.067,0,0,0,6.178.156,24.109,24.109,0,0,0,5.473-1.8q.7-.312,3.559-1.525a46.6,46.6,0,0,1,4.417-1.681,2.128,2.128,0,0,0,1.292-.743,1.119,1.119,0,0,0,.233-.939,1.082,1.082,0,0,0-.507-.664q-.862-.47-1.563.626a3.934,3.934,0,0,1-1.643,1.369,15.192,15.192,0,0,1-2.307,1.016q-1.055.351-2.7.821t-1.8.547A23.675,23.675,0,0,1,88.9,44.419a8.488,8.488,0,0,1-2.775-.508,3.065,3.065,0,0,1-1.447-1.016,11.868,11.868,0,0,0-1.251-1.486,8.618,8.618,0,0,0-1.955-1.526,1.156,1.156,0,0,1-.586-1.407A4.447,4.447,0,0,1,82.1,36.364q.078-.079,1.6-.977a6.523,6.523,0,0,0,2.151-1.838,8.591,8.591,0,0,1,2.423-2.268,11.763,11.763,0,0,0,.117-1.72,6.706,6.706,0,0,0-.743-3.049,2.374,2.374,0,0,0-2.112-1.642,2.8,2.8,0,0,0-2.659,1.095,4.7,4.7,0,0,0-.7,2.893,5.711,5.711,0,0,0,.743,2.619q.665,1.135,1.212,1.135.859-.079.547.625a2.118,2.118,0,0,1-1.251,1.1q-.549.155-1.212-1.056A10.423,10.423,0,0,1,81.2,30.343a11.132,11.132,0,0,1-.273-2.894,11.827,11.827,0,0,1,1.29-4.653,3.378,3.378,0,0,1,3.245-2.151q2.19.079,3.519,2.659a14.926,14.926,0,0,1,1.252,7.038q.235.548,1.212.391a11.569,11.569,0,0,1,2.58-.039,3.555,3.555,0,0,1,2.306.821,3.34,3.34,0,0,0,.079-1.173Q95,20.491,103.371,19.864a11.052,11.052,0,0,1,2.109.586,7.127,7.127,0,0,1,1.838,1.173,6.2,6.2,0,0,1,1.642,2.385,17.458,17.458,0,0,1,1.056,3.91v2.893q0,2.5-1.018,2.815-1.641.547-2.343-.039t.156-2.072a5.844,5.844,0,0,0-.313-4.536,3.622,3.622,0,0,0-3.987-2.345,3.062,3.062,0,0,0-2.815,2.111,7.745,7.745,0,0,0-.625,3.988q.235,1.955.861,2.032a16.872,16.872,0,0,1,2.776,1.252,15.4,15.4,0,0,0,3.48,1.407q3.05.624,3.479,1.955a6.833,6.833,0,0,1-.351,3.871,8.1,8.1,0,0,0,.706,7.311,21.59,21.59,0,0,0,1.837,2.581,18.638,18.638,0,0,1,2.307,4.378,50.465,50.465,0,0,1,2.422,8.054q.077.078.586.547a7.88,7.88,0,0,1,1.017,1.172q.51.7,1.213,1.916a21.734,21.734,0,0,1,1.526,3.559,51.8,51.8,0,0,1,1.524,5.395,37.56,37.56,0,0,1,.9,8.368,24.657,24.657,0,0,0,.626,6.529q.588,1.762,3.01,1.447a3.994,3.994,0,0,0,3.909-3.284q2.581-9.071-4.221-21.738-2.581-4.927-4.458-6.49a18.469,18.469,0,0,1,5.631,5.865,23.22,23.22,0,0,1,3.674,8.053q.076.392.429,2.072t.39,1.955c.025.183.131.717.312,1.6a11.27,11.27,0,0,1,.274,1.721c0,.262.025.77.079,1.525a7.256,7.256,0,0,1-.039,1.759c-.079.418-.156.979-.234,1.681a12.8,12.8,0,0,1-.391,2.034q-.27.977-.585,2.15,4.3,1.877,4.3,3.284a9.441,9.441,0,0,0-4.693-1.756,9.709,9.709,0,0,0-5.668.82A4.419,4.419,0,0,0,123,97.9q-2.815,0-3.987,1.409a8.569,8.569,0,0,0-1.8,5.512,41.74,41.74,0,0,0,.585,7.583A26.257,26.257,0,0,1,118.305,118.155ZM85.544,27.527a.729.729,0,0,1-.39-.469c0-.468.234-.652.7-.547q.47.155.9,1.172a4.1,4.1,0,0,1,.2,2.346.206.206,0,0,1-.235.234q-.861,0-.626-1.563Q86.325,27.527,85.544,27.527ZM105.8,28.779l-.156.234c-.416.26-.623.312-.623.157q-.315-2.112-1.408-2.425l-.313-.156q-.548-.47.545-.547.235-.078.7.234a3.082,3.082,0,0,1,1.251,2.5Z" transform="translate(-38.578 -0.001)" fill="#e6e6e6"/>
      <path id="Caminho_17" data-name="Caminho 17" d="M217.484,118.522c0,.313.131.443.392.392.208,0,.429-.248.664-.743a1.391,1.391,0,0,1,1.212-.821h-.782Q217.484,117.584,217.484,118.522Z" transform="translate(-168.485 -85.21)" fill="#e6e6e6"/>
      <path id="Caminho_18" data-name="Caminho 18" d="M242.326,117.163a1.289,1.289,0,0,1,1.369.352c.39.39.691.56.9.507a.463.463,0,0,0,.234-.7Q244.2,116.3,242.326,117.163Z" transform="translate(-186.524 -84.789)" fill="#e6e6e6"/>
    </g>
  </g>
</svg>
