<svg xmlns="http://www.w3.org/2000/svg" width="17.202" height="13.277" viewBox="0 0 17.202 13.277">
  <path id="path-1" d="M18.049,11.162a3.22,3.22,0,0,1-1.159.726L14.062,12.9l-3.3,1.184V12.466l4.507-1.606c.511-.183.59-.442.174-.578a3.04,3.04,0,0,0-1.678.087l-3,1.058V9.742l.173-.059a10.3,10.3,0,0,1,2.088-.442,8.908,8.908,0,0,1,3.887.463c1.322.418,1.471,1.033,1.135,1.457ZM11.349,8.4V4.251c0-.487-.09-.936-.547-1.063-.35-.112-.567.213-.567.7V14.277l-2.8-.889V1a33.69,33.69,0,0,1,3.86,1.058c2.373.815,3.177,1.829,3.177,4.113C14.47,8.4,13.1,9.243,11.349,8.4ZM2.291,12.3c-1.357-.382-1.583-1.178-.964-1.637a6.648,6.648,0,0,1,1.544-.742L6.888,8.488v1.629L4,11.151c-.511.183-.589.443-.174.579A3.048,3.048,0,0,0,5.5,11.644l1.387-.5V12.6l-.277.046a9.09,9.09,0,0,1-4.32-.348Z" transform="translate(-1 -1)" fill="#e6e6e6" fill-rule="evenodd"/>
</svg>
