<svg id="g4146" xmlns="http://www.w3.org/2000/svg" width="13.269" height="13.277" viewBox="0 0 13.269 13.277">
  <path id="path4148" d="M7.544.892A6.621,6.621,0,0,1,4.6-.153c-.745-.486-.913-.686-.913-1.085,0-.8.881-2.2,2.387-3.8A12.08,12.08,0,0,1,8.248-6.984a21.178,21.178,0,0,1,3,2.93C12.438-2.6,12.984-1.408,12.707-.877A5.85,5.85,0,0,1,10.23.618,7.28,7.28,0,0,1,7.544.892ZM2.679-2.07A6.884,6.884,0,0,1,1.6-5.307a5.186,5.186,0,0,1,.113-1.618A6.627,6.627,0,0,1,3.322-10.2c.333-.346.363-.355.768-.218A5.609,5.609,0,0,1,5.926-9.153l.476.431-.26.319A20.642,20.642,0,0,0,3.18-3.518a3.165,3.165,0,0,0-.254,1.712c.076.2.006.125-.248-.264Zm10.866.162a3.222,3.222,0,0,0-.2-1.4,20.268,20.268,0,0,0-2.91-4.94l-.379-.477.41-.377a8.665,8.665,0,0,1,1.309-1.037,2.521,2.521,0,0,1,.964-.372c.12,0,.542.438.883.917a6.949,6.949,0,0,1,1.113,2.574,8.567,8.567,0,0,1,.02,2.5,7.878,7.878,0,0,1-.5,1.571,8.412,8.412,0,0,1-.68,1.165c-.083.106-.083.106-.036-.123ZM7.653-10.737A8.255,8.255,0,0,0,5.766-11.4a3.457,3.457,0,0,0-.63-.035c-.391.02-.373,0,.254-.3a6.448,6.448,0,0,1,1.547-.515,7.971,7.971,0,0,1,2.566,0,7.16,7.16,0,0,1,2.005.746l.139.086-.319-.016a5.8,5.8,0,0,0-2.553.708,5.287,5.287,0,0,1-.579.259c-.019,0-.263-.122-.543-.264Z" transform="translate(-1.571 12.357)" fill="#e6e6e6"/>
</svg>
