<svg xmlns="http://www.w3.org/2000/svg" width="71.12" height="187.819" viewBox="0 0 71.12 187.819">
  <g id="_3do" data-name="3do" transform="translate(-69.44 -3.741)">
    <path id="Caminho_19" data-name="Caminho 19" d="M74.643,161.126A30.357,30.357,0,1,1,105,191.56,30.39,30.39,0,0,1,74.643,161.126Z" fill="#e6e6e6"/>
    <path id="Caminho_20" data-name="Caminho 20" d="M76.727,81.763c-4.468,2.979-5.657,20.286-5.657,20.286s1.189,17.308,5.657,20.287S105,127.111,105,127.111s23.812-1.79,28.272-4.775,5.658-20.287,5.658-20.287-1.189-17.308-5.658-20.286S105,76.986,105,76.986,81.189,78.776,76.727,81.763Z" fill="#e6e6e6"/>
    <path id="Caminho_21" data-name="Caminho 21" d="M105,3.741l35.56,35.651L105,75.035,69.44,39.392Z" fill="#e6e6e6"/>
  </g>
</svg>
