<svg xmlns="http://www.w3.org/2000/svg" width="126.526" height="112.218" viewBox="0 0 126.526 112.218">
  <g id="dreamcast" transform="translate(-48.252 -2.919)">
    <path id="Caminho_32" data-name="Caminho 32" d="M125.279,4.448a82.862,82.862,0,0,1,12.008,3.114C142.332,9.1,150.522,13.9,153.414,16.2a45.278,45.278,0,0,1,5.359,5.367c1.085,1.4,3.158,4.42,4.481,6.283a110.008,110.008,0,0,1,6.687,11.87,27.876,27.876,0,0,1,3.22,10.01l1.553,6.94c.146,1.2.267,5.6-2.317,6.219a5.7,5.7,0,0,1-6.1-2.317c-1.558-2.411-1.343-5.833-3.1-9.75-1.374-3.166-1.975-7.767-4.169-11.076l-1.721-2.91c-3.045-4.688-6.219-8.409-8.112-10.836a39.293,39.293,0,0,0-7.731-6.783A52.562,52.562,0,0,0,131.139,14.7a60.437,60.437,0,0,0-8.051-1.965c-3.66-.411-6.068-.99-9.546-1.235-4.294-.3-6.354-.685-11.924-.034-2.11.572-5.453.8-8.462,1.95a74.4,74.4,0,0,0-9.121,4.537,70.928,70.928,0,0,0-12.559,9.362c-3.615,3.863-5.423,5.936-7.916,10.833-1.1,2.423-3.239,6.171-4.1,8.817-.588,2.686-1.71,7.7-1.521,10.129.085,4.359-.3,5.257.031,8.82.012,3.208,1.065,5.432,1.5,8.056.375,1.813,2.114,8.086,3.19,9.542,4.891,10.538,11.456,15.1,18.772,18.394,2.062,1.05,8.515,2.777,10.382,3.272a76.482,76.482,0,0,0,11.4,1.035c4.242.083,10.089-.492,13.637-1.8,3.84-1.412,8.28-3.419,8.229-3.363a51.137,51.137,0,0,0,5.348-3.29,18.223,18.223,0,0,0,3.593-2.465,17.071,17.071,0,0,0,3.306-3.446c.59-.855,1.527-2.164,2.44-3.321a52.073,52.073,0,0,0,2.505-5.4c1.147-3.1.969-2.954,1.187-6.25a18.724,18.724,0,0,0-.2-4.71c-.517-2.962-.334-5.575-1.012-8.451-.916-3.891-1.677-6.8-2.846-10.536-1.1-4.2-4.327-8.1-6.75-10.878a35.677,35.677,0,0,0-12.619-8.339,57.267,57.267,0,0,0-6.688-1.651c-4.037-.422-4.694-.151-8.559.132a52.474,52.474,0,0,0-5.553,1.262,33.677,33.677,0,0,0-7.935,3.986,20.837,20.837,0,0,0-4.386,3.133c-1.289,1.193-2.21,3.221-3.254,4.41a32.226,32.226,0,0,0-4.09,7.342,22.838,22.838,0,0,0-1.355,9.229,37.6,37.6,0,0,0,.731,6.213c.207.771.727,3.161.84,3.641s1.356,3.008,1.527,3.374a20.475,20.475,0,0,0,4.3,5.825,17.989,17.989,0,0,0,7.307,4.3c2.165,1.188,5.816,1.39,7.836,1.394a36.076,36.076,0,0,0,4.858-.534,25.6,25.6,0,0,0,5.952-1.865c2.485-1.152,4.171-1.567,5.9-2.846a26.645,26.645,0,0,0,3.456-3.224,13.292,13.292,0,0,0,1.373-6.267c-.081-2.9.342-4.553-.251-6.943a25.326,25.326,0,0,0-2.7-6.867c-1.111-1.729-3.5-3.414-6.219-4.755a28.249,28.249,0,0,0-6.659-1.63,8.236,8.236,0,0,0-6.814,2.483c-1.28,1.463-3.81,4.5-2.8,7.644.912,2.843,2.013,5.872,6.277,5.647,2.926.609,6.311-.275,7.438.244a3.778,3.778,0,0,1,1.708,4.511c-.424,2.821-3.126,3.159-6.01,3.374-2.58.432-9.133-.831-10.573-1.91a30.088,30.088,0,0,1-3.487-2.884A13.9,13.9,0,0,1,90.04,67.5a11.76,11.76,0,0,1-1.253-3.147,16.833,16.833,0,0,1-.5-4.914c.114-1.313.466-1.872.816-3.792a18.55,18.55,0,0,1,2.956-5.722c1.815-1.842,4.12-4.035,6.37-5.054,1.984-1.048,5.46-1.434,8.605-1.25a38.508,38.508,0,0,1,7.564,1.224c3.415,1.22,4.391,1.463,7.194,3.231a20.492,20.492,0,0,1,6.082,6.4,34.474,34.474,0,0,1,3.272,20.9,13.21,13.21,0,0,1-1.466,4.835,15.032,15.032,0,0,1-4.541,5.606,17.848,17.848,0,0,1-3.45,2.441c-1.628.988-2.723,1.5-4.423,2.356a33.239,33.239,0,0,1-5.5,2.133c-2.458.972-4.344,1.012-7.435,1.473-3.043.763-11.368.218-16.327-1.969a31.058,31.058,0,0,1-10.07-6.99A38.48,38.48,0,0,1,74.306,79.9c-2.3-4.414-2.746-8.566-3.114-9.438a39.2,39.2,0,0,1-1.084-5.66,42.53,42.53,0,0,1,1.914-16.071,56.525,56.525,0,0,1,2.624-5.154c1.411-2.007,2.093-3.261,3.293-4.684,1.809-2.194,3.126-3.984,4.888-5.246a59.157,59.157,0,0,1,13.314-7.987c6.3-2.567,8.2-2.036,14.163-1.941a56.9,56.9,0,0,1,8.51,1.217,47.9,47.9,0,0,1,8.021,2.007c2.579.72,4.07,1.869,6.186,3.148a41.615,41.615,0,0,1,5.146,3.917c3.464,2.54,5.135,5.21,7.258,8.489a59.176,59.176,0,0,1,3.308,7.419c.186.749.757,2.9,1.123,4.157.471,1.994.7,3.76,1.224,6.01A101.727,101.727,0,0,1,152.7,70.866c.583,3.509-.351,10.672-.9,12.871a36.622,36.622,0,0,1-7.611,13.923,41.892,41.892,0,0,1-5.925,5.583,41.113,41.113,0,0,1-5.754,3.792,66.555,66.555,0,0,1-11.221,5.413,69.9,69.9,0,0,1-7.326,2.074,77.607,77.607,0,0,1-16.776.254,92.456,92.456,0,0,1-15.5-3.481c-1.951-.732-5.731-2.317-7.316-3.17a43.748,43.748,0,0,1-5.075-3.457c-2.369-1.466-7.671-6.452-11.094-11.1-.75-1.436-3.447-5.745-4.032-7.633a89.548,89.548,0,0,1-3.276-8.705c-.672-3.851-1.807-6.331-2.25-10.2a26.108,26.108,0,0,0-.389-4.236c.3-2.646-.1-5.14.424-8.02.461-2.431,1.072-3.446,1.217-5.643.142-.94,1.352-3.767,1.674-5.025.976-2.072,1.219-3.779,2.493-6.094,1.836-3.608,3.755-7.759,6.7-11.385.842-1.124,3.23-3.821,4.044-4.756,1.924-1.923,3.053-2.227,5.235-4.157a11.66,11.66,0,0,1,3.177-2.351c2.5-1.932,4.662-2.641,7.042-4.4,4.77-2.376,6.509-3.178,11.244-5.148,2.736-.976,6.552-1.516,7.926-2.049,2.614-.162,5.267-1,8.017-.83,3.087-.029,6.2.191,9.3.473a50.671,50.671,0,0,1,8.53,1.034Z" fill="#e6e6e6"/>
  </g>
</svg>
