<svg xmlns="http://www.w3.org/2000/svg" width="331.043" height="121.423" viewBox="0 0 331.043 121.423">
  <g id="game-gear" transform="translate(-16.044)">
    <path id="path21" d="M47.486,41.308C75.206,9.529,108.6-7.5,122.1,3.193c13.464,10.725,1.914,45.177-25.839,76.923-27.72,31.779-61.116,48.807-74.58,38.114C8.183,107.506,19.767,73.054,47.486,41.308Z" fill="#e6e6e6"/>
    <path id="path23" d="M157.672,41.408C186.152,9.86,220.438-7.1,234.3,3.556c13.827,10.659,1.947,44.88-26.531,76.428-28.479,31.581-62.767,48.543-76.594,37.884S129.194,72.988,157.672,41.408Z" fill="#e6e6e6"/>
    <path id="path25" d="M264.692,41.408C293.171,9.86,327.492-7.1,341.318,3.556s1.946,44.88-26.5,76.428c-28.479,31.581-62.8,48.543-76.625,37.884S236.246,72.988,264.692,41.408Z" fill="#e6e6e6"/>
  </g>
</svg>
