<svg xmlns="http://www.w3.org/2000/svg" width="607.475" height="106.364" viewBox="0 0 607.475 106.364">
  <g id="game-boy" transform="translate(-0.902 0.065)">
    <path id="Caminho_77" data-name="Caminho 77" d="M116.734,54.22l8.844-19.737,3.883,19.737H116.734M241.9,2.612l-24,55.813L207.276,2.612H186.622L157.232,84.85,143.481,2.612H117.7L78.662,91.267,84.486,54.22H45.714L42.64,73.309H58.925L57.038,83.5c-9.275,3.829-25.022,2.373-31.762-9.707-4.26-7.657-8.251-24.7,9.707-40.391C49.65,20.624,75,18.3,89.609,24.992c0,0,1.833-10.731,3.236-20.654C64.749-5.369,42.909,2.72,28.3,11.78,8.289,24.021-1.31,42.841,1.333,68.4,4.3,98.007,42.64,116.72,75.157,97.846a3.823,3.823,0,0,1,.863-.377l-3.128,6.9h21.84L108.483,73.9h24.159l5.285,30.468h35.591l18.119-56.892,14.884,56.892h13.913l23.889-62.986,9.437,63.363h20.869l-7.6-102.136Z" transform="translate(0 0)" fill="#e6e6e6"/>
    <path id="Caminho_78" data-name="Caminho 78" d="M508.5,107.5h58.294L570.3,85.718H533.845L536.7,67.545h31.762l3.451-21.84H539.885l2.75-18.065h36.508L582.594,5.8H524.732L508.5,107.5" transform="translate(-233.871 -2.702)" fill="#e6e6e6"/>
    <path id="Caminho_79" data-name="Caminho 79" d="M1012.193,36.764,999.143,3.6H975.2l24.7,53.656L992.241,105.3h20.977l6.363-42.494L1057.275,3.6h-24.482l-20.6,33.164" transform="translate(-448.898 -1.689)" fill="#e6e6e6"/>
    <path id="Caminho_80" data-name="Caminho 80" d="M898.1,65.618c-5.608,16.825-19.2,26.639-30.252,21.624-11-4.907-15.477-22.649-9.815-39.582,5.662-16.987,19.2-26.585,30.2-21.678,11.055,4.961,15.531,22.7,9.868,39.636m-8.143-59.8c-23.188-5.339-47.293,13.1-53.818,41.2-6.417,28.149,7.064,55.274,30.2,60.667,23.188,5.285,47.239-13.158,53.818-41.253C926.568,38.277,913.033,11.153,889.953,5.814Z" transform="translate(-384.089 -2.285)" fill="#e6e6e6"/>
    <path id="Caminho_81" data-name="Caminho 81" d="M722.506,47.429H708.054l3.182-18.874h13.589c14.776,0,11.756,18.874-2.319,18.874m-2.535,41.092H701.528l3.236-20.276h17.472C738.9,68.245,738.414,88.521,719.971,88.521ZM732.212,7.039c-11.271-.162-39.15,0-39.15,0h.216l-16.178,101h47.077c19.413,0,47.724-28.527,21.894-51.823C772.495,28.771,746.287,7.362,732.212,7.039Z" transform="translate(-311.552 -3.24)" fill="#e6e6e6"/>
  </g>
</svg>
