<svg xmlns="http://www.w3.org/2000/svg" width="577.287" height="168.498" viewBox="0 0 577.287 168.498">
  <g id="game-boy-color" transform="translate(0 168.499)">
    <g id="g12">
      <path id="path14" d="M205.885-56.039a32.145,32.145,0,0,1-30.35,14.614c-24.482-2.51-27.368-24.014-27.368-24.014s-3.35-15.825,11.729-29.6c15.268-12.848,31.186-10.894,31.186-10.894s10.705,1.025,16.2,18.712C214.356-64.694,205.885-56.039,205.885-56.039Zm36.958-44.59c-3.071-9.307-11.173-18.152-11.173-18.152S219.479-134.609,195.553-140a57.048,57.048,0,0,0-36.588,4.746s-14.611,5.864-25.6,17.966c-17.5,16.848-22.529,41.425-22.529,41.425s-6.7,21.411,3.911,38.355L126.29-23.549a66.24,66.24,0,0,0,33.7,14.988,71.117,71.117,0,0,0,30.441-1.115A75.059,75.059,0,0,0,215.2-19.64s23.738-13.123,30.254-39.934l-2.607-41.055" fill="#e6e6e6"/>
      <path id="path16" d="M408.36-51.195c-26.345,15.825-42.915-1.493-42.915-1.493s-7.354-4.839-8.937-19.547c-1.116-17.037,15.825-25.879,15.825-25.879a37,37,0,0,1,20.11-4.656c11.174.837,14.706.092,23.737,6.8,8.561,7.727,8.008,13.4,8.008,13.4s3.069,19.18-15.828,31.375Zm44.588-54.366c-16.284-26.623-44.956-30.627-44.956-30.627s-9.126-3.074-28.674-.469c-36.677,6.982-49.434,35.19-49.434,35.19S316.756-80.8,321.971-55.759l16.013,31.651c11.821,11.076,16.66,11.076,17.407,11.732C371.031-5.3,389.182-9.4,389.182-9.4A93.975,93.975,0,0,0,433.03-27.924c16.756-12.288,24.021-30.346,24.021-30.346l-4.1-47.291" fill="#e6e6e6"/>
      <path id="path18" d="M492.427-99.6l-1.772-24.3s17.034-.373,24.111.837c13.968,2.141,13.215,6.052,13.215,6.052s-.461,4.932-11.074,9.776a100.269,100.269,0,0,1-24.48,7.631ZM457.051-58.269s.554,14.891-1.772,18.523a30.173,30.173,0,0,0-2.7,13.405S450.438-6.232,473.714-2.88c16.011-.1,17.966-13.409,18.242-19.085.933-4.468.559-25.229.559-25.229l20.76,16.944S528.36-17.59,537.2-10.234c9.226,7.259,11.541,8.562,11.541,8.562S550.7.655,557.769-.183c5.689.1,10.9-5.026,10.9-5.026a23.567,23.567,0,0,0,8.276-13.311,14.428,14.428,0,0,0-5.761-14.987s-28.857-23.274-48.409-39.287c13.12-7.165,19.454-12.1,19.454-12.1s18.251-12.1,22.157-30.625c5.406-20.389-9.96-28.393-9.96-28.393s-9.59-6.89-17.694-10.523a79.332,79.332,0,0,0-39.372-7.913s-27-1.86-44.595,19.831c-8.1,10.518-3.069,24.3-3.069,24.3s1,2.209,3.253,12.661c4.531,21.021,4.1,47.293,4.1,47.293" fill="#e6e6e6"/>
      <path id="path20" d="M321.971-55.756c-7.845-1.724-20.389,1.488-20.389,1.488s-17.5,6.422-20.2,6.329c-1.02-1.486-3.255-30.068-2.6-41.519a341.876,341.876,0,0,0-1.3-36.679s-.837-19.456-11.267-31c-12.288-12.38-20.851-7.075-25.784-4.1-11.826,10.614-6.332,23.55-6.332,23.55l6.145,17.412s2.981,7.446,2.608,19.641l2.607,41.055c0,5.493,4.468,42.449,4.468,42.449s.464,12.011,12.01,14.15c11.821,1.953,23.456-3.909,28.392-6.232a107.361,107.361,0,0,1,11.453-4.377,93.835,93.835,0,0,1,10.794-1.678c12.664-1.211,17.225-3.442,17.225-3.442a13.4,13.4,0,0,0,8.193-5.4c3.289-4.664,7.274-26.531-16.013-31.649" fill="#e6e6e6"/>
      <path id="path22" d="M114.747-37.516c-8.315-2.485-17.871-.838-17.871-.838s-27,2.605-41.055-.371C34.036-42.542,34.778-66,34.778-66s-.742-15.547,12.385-36.585c16.2-25.974,34.07-30.629,34.07-30.629a11.517,11.517,0,0,1,8.66.559c2.6,15.08,17.219,14.988,17.219,14.988s21.043,1.4,20.015-24.106c-2.42-20.95-22.623-23.836-31.094-25.789-25.413-4.562-41.89,9.029-41.89,9.029S37.107-149.315,16.722-117.2C2.847-97.28,1.175-81.64,1.175-81.64S-.5-77.914.149-61.342A50.125,50.125,0,0,0,4.62-39S11.976-16.75,35.247-7.629C49.395-1.764,70.064-1.857,70.064-1.857s20.015-.278,35.374-1.118C113.816-2.324,117.82-6.7,117.82-6.7s9.4-6.143,8.47-16.85c0,0-1.822-11.058-11.543-13.967" fill="#e6e6e6"/>
    </g>
  </g>
</svg>
