<svg xmlns="http://www.w3.org/2000/svg" width="207.211" height="246" viewBox="0 0 207.211 246">
  <path id="path4" d="M202.868,191.709a133.745,133.745,0,0,1-13.226,23.779q-10.432,14.873-17.037,20.59-10.2,9.384-21.9,9.642c-5.6,0-12.36-1.594-20.226-4.829q-11.837-4.829-21.775-4.814a60,60,0,0,0-22.391,4.814q-11.985,4.851-19.348,5.087-11.227.478-22.391-9.9-7.129-6.218-17.819-21.319A147.447,147.447,0,0,1,7.913,177.329,137.055,137.055,0,0,1,0,132.72Q0,107.991,10.7,90.1A62.755,62.755,0,0,1,33.1,67.436a60.272,60.272,0,0,1,30.29-8.547c5.945,0,13.741,1.839,23.428,5.453,9.661,3.626,15.863,5.465,18.583,5.465,2.033,0,8.924-2.15,20.606-6.437q16.57-5.963,28.008-4.973,31.045,2.505,46.587,24.528Q172.84,99.747,173.121,130q.251,23.545,17.052,39.129a56.037,56.037,0,0,0,17.037,11.176q-2.05,5.945-4.343,11.4ZM155.4,4.922q0,18.454-13.454,34.422c-10.812,12.64-23.889,19.944-38.07,18.791a38.3,38.3,0,0,1-.285-4.662c0-11.811,5.142-24.45,14.272-34.785A54.95,54.95,0,0,1,135.25,5.634Q145.773.506,155.142,0a44.7,44.7,0,0,1,.258,4.921Z" transform="translate(0 -0.001)" fill="#e6e6e6"/>
</svg>
