<svg xmlns="http://www.w3.org/2000/svg" width="331.578" height="296.698" viewBox="0 0 331.578 296.698">
  <g id="neogeo" transform="translate(-707.406 -360.949)">
    <g id="Grupo_37" data-name="Grupo 37" transform="translate(69.311 27.641)">
      <g id="Grupo_36" data-name="Grupo 36" transform="translate(-359 180)">
        <path id="Caminho_46" data-name="Caminho 46" d="M1066.662,403.221h2.719c2.536,0,6.88.522,8.668,1.572a8.067,8.067,0,0,1,3.536,3.5q.856,1.94.859,8.544v17.28c0,5.215-5.51,7.871-8.166,8.447a36.724,36.724,0,0,1-7.78.865,31.535,31.535,0,0,1-18.849-5.68q-7.933-5.685-11.5-17.793t-3.555-28.161a102.888,102.888,0,0,1,3.255-25.854q3.257-12.6,11.087-19.643t19.615-7.04c8.223,0,13.03,2.081,19.082,8.371,6.187,6.427,12.124,13.73,15.589,24.453h5.06V332.713h-2.878q-1.558,4.73-3.412,6.425a5.882,5.882,0,0,1-4.033,1.7q-1.4,0-9.037-3.074a69.623,69.623,0,0,0-11.05-3.737,55.376,55.376,0,0,0-12.656-1.314q-25.275,0-41.957,17.373t-16.672,42.573a58.27,58.27,0,0,0,5.426,25.443,53.433,53.433,0,0,0,11.825,15.85,61.738,61.738,0,0,0,17.448,11.367q9.887,4.317,24.854,4.319a104.016,104.016,0,0,0,22.6-2.419,100.2,100.2,0,0,0,20.988-7.184v-23.22q0-6.106.694-7.672a8.291,8.291,0,0,1,3.522-4.251c1.521-.856,5.673-1.414,9.546-1.693v-3.8h-54.856v3.8Z" fill="#e6e6e6"/>
        <path id="Caminho_47" data-name="Caminho 47" d="M1192.756,433.3q-9.379,7.183-24.948,7.18h-5.916q-4.754,0-6.881-1.3a6.728,6.728,0,0,1-2.907-3.349q-.777-2.04-.78-11.18V393.456c5.33,0,11.573.693,14.375,2.088s5.256,4.1,7.366,8.136a39.026,39.026,0,0,1,4.165,14.814h4.5V361.1h-4.5c-.879,8.624-2.909,14.412-6.1,18.83s-8.321,6.628-15.4,6.628h-4.406v-38.5c-.037-6.691,5.928-5.916,5.928-5.916h6.97q12.644,0,17.233,1.475a24.9,24.9,0,0,1,12.189,7.679q4.313,5.234,6.69,17.242h3.771V335.75h-93.777v4.491h2.958q5.4,0,8.516,2.283a7.815,7.815,0,0,1,3.032,4.413,57.588,57.588,0,0,1,.412,9.224v69.361q0,8.328-.9,10.293a7.453,7.453,0,0,1-3.276,3.917,15.381,15.381,0,0,1-7.781,1.715h-2.958v5.217h95.364l5.73-35.269h-5.234q-4.1,14.725-13.478,21.9" fill="#e6e6e6"/>
        <path id="Caminho_48" data-name="Caminho 48" d="M1266.545,334.009q-23.972-.99-40.387,15.636-16.434,16.616-16.42,41.536,0,22.193,12.628,38.361,15.972,20.455,45.226,20.465,29.156,0,45.151-21.455Q1324.8,412.4,1324.81,391.1q0-24.911-16.177-41.5t-42.069-15.589m25.49,88.77q-3.912,11.587-10.947,16.859-5.512,4.128-13.749,4.124-12.228,0-19.026-9.564-9.746-13.687-9.751-42.3,0-24.084,6.312-36.941,7.749-15.664,22.613-15.664a23.508,23.508,0,0,1,14.263,4.538q6.193,4.534,10.19,15.542t4,33.2q0,18.634-3.917,30.225" fill="#e6e6e6"/>
      </g>
      <path id="Caminho_49" data-name="Caminho 49" d="M912.454,449.362q29.156,0,45.151-21.455,12.063-16.168,12.068-37.455,0-24.911-16.177-41.5t-42.069-15.589q-23.972-.988-40.387,15.636-16.434,16.616-16.42,41.536,0,22.193,12.628,38.361,15.972,20.455,45.226,20.465m-22.884-94.991q7.749-15.664,22.613-15.664a23.5,23.5,0,0,1,14.263,4.536q6.193,4.535,10.19,15.542t4,33.186q0,18.634-3.917,30.225t-10.947,16.869q-5.512,4.125-13.749,4.123-12.228,0-19.026-9.564-9.746-13.687-9.751-42.3,0-24.084,6.312-36.941" fill="#e6e6e6"/>
      <path id="Caminho_50" data-name="Caminho 50" d="M856.132,410.506H850.9q-4.1,14.725-13.478,21.9t-24.939,7.18h-5.916c-3.168,0-5.457-.435-6.881-1.3a6.742,6.742,0,0,1-2.909-3.349q-.776-2.043-.779-11.18V392.568c5.329,0,11.573.693,14.375,2.089s5.258,4.1,7.369,8.135a39.092,39.092,0,0,1,4.165,14.814h4.5v-57.4h-4.5c-.882,8.62-2.913,14.412-6.1,18.83s-8.32,6.627-15.4,6.627h-4.409v-38.5c-.036-6.692,5.933-5.916,5.933-5.916h6.964q12.647,0,17.242,1.474a24.848,24.848,0,0,1,12.189,7.679q4.311,5.233,6.69,17.242h3.77V334.832H755v4.52h2.955q5.405,0,8.519,2.283a7.808,7.808,0,0,1,3.027,4.412,57.186,57.186,0,0,1,.414,9.224v69.361q0,8.325-.9,10.284a7.455,7.455,0,0,1-3.273,3.918,15.386,15.386,0,0,1-7.786,1.715H755v5.218h95.364L856.1,410.5Z" fill="#e6e6e6"/>
      <path id="Caminho_51" data-name="Caminho 51" d="M676.144,440.489h-2.531a15.172,15.172,0,0,1-9.677-3.344q-4.223-3.346-4.225-12.89V357.267l72.565,90.461,4.7.006V355.469c0-5.246.436-6.768,1.3-8.927a9.346,9.346,0,0,1,3.622-4.673q2.32-1.433,9.1-2.336V334.84H715v4.694q8.9-.163,12.684,4.591c1.84,2.349,2.759,4.678,2.759,11.348v48.317l-56.49-68.95H639.584v3.725c3.267.108,3.383,1.2,5.123,2.127l9.208,9.267-.013,74.293q0,8.811-3.477,12.479t-12.329,3.753v4.491h38.034v-4.491Z" fill="#e6e6e6"/>
      <path id="Caminho_52" data-name="Caminho 52" d="M448.432,8.2A13.345,13.345,0,1,1,435.086-5.149,13.345,13.345,0,0,1,448.432,8.2Z" transform="translate(370.209 476.162)" fill="#e6e6e6" stroke="#000" stroke-width="0.113"/>
    </g>
  </g>
</svg>
