<svg xmlns="http://www.w3.org/2000/svg" width="153.302" height="65.079" viewBox="0 0 153.302 65.079">
  <g id="nintendo-ds" transform="translate(-367.071 -262.386)">
    <g id="g2462">
      <g id="g2598" transform="translate(456.271 314.579)">
        <path id="path2600" d="M0,0C5.856,2.323,18.238,4.18,27.9,4.18c10.57,0,14.941-3.613,14.941-8.162,0-4.083-4.063-6.483-15.74-10.761C11.493-20.5.047-25.061.047-35.3c0-10.613,13.769-16.9,34.788-16.9a98.226,98.226,0,0,1,22.314,2.051l.037,10.069c-7.021-1.336-13.249-3.636-22.942-3.636-10.392,0-14.814,3.287-14.8,6.705,0,4.919,6.809,7.269,18.755,11.523C54.812-19.517,64.1-14.918,64.1-4.9,64.069,5.439,52.5,12.886,26.363,12.886A154.825,154.825,0,0,1,0,10.858" fill="#e6e6e6"/>
      </g>
      <g id="g2602" transform="translate(400.586 271.315)">
        <path id="path2604" d="M0,0H-12.463V47.069H0c19.128,0,31.192-8.162,31.192-23.446S19.128,0,0,0M33.431,51.475C27.263,54.245,15.633,56,5.426,56H-33.515V-8.78H5.426c10.2,0,21.838,1.8,28.005,4.573,14.988,6.779,19.877,17.59,19.877,27.831,0,10.264-4.848,21.075-19.877,27.851" fill="#e6e6e6"/>
      </g>
    </g>
  </g>
</svg>
