<svg xmlns="http://www.w3.org/2000/svg" width="106" height="29.6" viewBox="0 0 106 29.6">
  <g id="nintendo-3ds" transform="translate(-136.4)">
    <path id="Caminho_129" data-name="Caminho 129" d="M213.4,23.7A42.894,42.894,0,0,0,226,25.6c4.8,0,6.8-1.6,6.8-3.7,0-1.8-1.8-2.9-7.1-4.9-7.1-2.6-12.2-4.7-12.2-9.3,0-4.8,6.2-7.6,15.7-7.6a44.649,44.649,0,0,1,10.1.9V5.6c-3.2-.6-6-1.6-10.4-1.6-4.7,0-6.7,1.5-6.7,3,0,2.2,3.1,3.3,8.5,5.2,7.5,2.7,11.7,4.8,11.7,9.3,0,4.7-5.2,8-17.1,8a69.51,69.51,0,0,1-11.9-.9V23.7ZM188.3,4.1h-5.6V25.4h5.6c8.6,0,14.1-3.7,14.1-10.6S197,4.1,188.3,4.1m15.1,23.3c-2.8,1.3-8,2.1-12.6,2.1H173.2V.2h17.6c4.6,0,9.9.8,12.7,2.1,6.8,3.1,9,7.9,9,12.6,0,4.6-2.2,9.5-9,12.6" fill="#e6e6e6"/>
    <path id="Caminho_130" data-name="Caminho 130" d="M160.8,13.4S169,12.1,169,7c0-5-8.7-7-18-7a85.735,85.735,0,0,0-13.9,1V5.5a49.508,49.508,0,0,1,12.4-1.7c5.3,0,9.4,1.6,9.4,3.8,0,2.7-4,4.3-12.7,4.3h-4V16h3.7c9.1,0,14.3,1.4,14.3,4.7,0,3-4.6,4.8-10.4,4.8a52.3,52.3,0,0,1-13.4-2.1v4.9a79.691,79.691,0,0,0,15.4,1.3c9.8,0,18.4-3.2,18.4-8.7,0-4.7-5.9-7.4-9.4-7.5" fill="#e6e6e6"/>
  </g>
</svg>
