<svg xmlns="http://www.w3.org/2000/svg" width="375.031" height="374.533" viewBox="0 0 375.031 374.533">
  <g id="nintendo-64" transform="translate(-49.09 -88.712)">
    <path id="Caminho_53" data-name="Caminho 53" d="M278.1,205.831l10.964-12.46V109.145L236.73,129.33h0l-43.359,77.249,43.359-16.7Z" fill="rgba(2,34,169,0)"/>
    <path id="Caminho_54" data-name="Caminho 54" d="M371.044,323.2V181.161l53.077-20.434V384.251l-53.077,22.427h0l-78-101.919V439.571L236.73,463.244V232.993l56.317-21.43Z" fill="rgba(1,29,169,0)"/>
    <path id="Caminho_55" data-name="Caminho 55" d="M152.255,384.5l-49.838-96.686V406.678h0Z" fill="rgba(2,34,169,0)"/>
    <path id="Caminho_56" data-name="Caminho 56" d="M155.495,160.728h0l24.919,50.835,12.958-4.984L236.73,129.33,184.4,108.9Z" fill="#e6e6e6"/>
    <path id="Caminho_57" data-name="Caminho 57" d="M278.1,205.831h0l39.87-45.1,53.077,20.434V323.2l-78-111.637Z" fill="#e6e6e6"/>
    <path id="Caminho_58" data-name="Caminho 58" d="M236.73,463.244V232.993l-56.317-21.43v116.87L102.168,181.161h0L49.09,160.728V384.251l53.077,22.427V287.814l78.246,151.757Z" fill="#e6e6e6"/>
    <path id="Caminho_59" data-name="Caminho 59" d="M180.414,211.562h0v0Z" fill="#fe2015"/>
    <path id="Caminho_60" data-name="Caminho 60" d="M293.047,360.329,309,382.756l62.048,23.922h0l-78-101.919Z" fill="#e6e6e6"/>
    <path id="Caminho_61" data-name="Caminho 61" d="M180.663,211.562l56.317-21.43,56.317,21.43h0l-56.317,21.43Z" fill="#e6e6e6"/>
    <path id="Caminho_62" data-name="Caminho 62" d="M371.044,140.294l53.077,20.434-53.077,20.434-53.077-20.434h0Z" fill="#e6e6e6"/>
    <path id="Caminho_63" data-name="Caminho 63" d="M102.417,140.294l53.077,20.434-53.077,20.434L49.34,160.728h0Z" fill="#e6e6e6"/>
    <path id="Caminho_64" data-name="Caminho 64" d="M236.73,88.712,184.4,108.9l52.33,20.434,52.33-20.184h0Z" fill="#e6e6e6"/>
  </g>
</svg>
