<svg xmlns="http://www.w3.org/2000/svg" width="32" height="32.007" viewBox="0 0 32 32.007">
  <g id="Nintendo_Switch_Logo" transform="translate(-193.121 833)">
    <path id="Caminho_1" data-name="Caminho 1" d="M199.971-832.825a8.27,8.27,0,0,0-6.559,6.03c-.292,1.12-.311,1.776-.278,10.464.02,7.979.027,8.164.159,8.781a8.309,8.309,0,0,0,6.447,6.468,29.421,29.421,0,0,0,4.578.139c3.71.027,4.095.02,4.194-.08s.106-1.378.106-15.878c0-10.749-.02-15.812-.066-15.9-.066-.119-.179-.126-4.061-.119A42.828,42.828,0,0,0,199.971-832.825Zm6,15.9v13.426l-2.7-.033a13.958,13.958,0,0,1-3.247-.166,5.621,5.621,0,0,1-4.161-4.334c-.146-.669-.146-17.157-.007-17.813a5.69,5.69,0,0,1,3.432-4.1c.875-.351,1.279-.391,4.114-.4l2.564-.007Z" transform="translate(0 -0.069)" fill="#e6e6e6"/>
    <path id="Caminho_2" data-name="Caminho 2" d="M271.5-733.708a3.533,3.533,0,0,0-1.391.7,2.936,2.936,0,0,0-.987,2.465,2.085,2.085,0,0,0,.272,1.087,3.017,3.017,0,0,0,1.424,1.431,2.053,2.053,0,0,0,1.133.265,2.41,2.41,0,0,0,1.06-.119,2.991,2.991,0,0,0,2.061-3.313A3.043,3.043,0,0,0,271.5-733.708Z" transform="translate(-70.962 -92.658)" fill="#e6e6e6"/>
    <path id="Caminho_3" data-name="Caminho 3" d="M475.046-832.954c-.026.02-.046,7.2-.046,15.964,0,14.453.007,15.918.106,15.958.179.066,5.32.04,5.956-.026a8.27,8.27,0,0,0,6.354-4.374,9.847,9.847,0,0,0,.5-1.16c.417-1.246.4-.915.4-10.437,0-7.6-.013-8.734-.106-9.218a8.228,8.228,0,0,0-6.745-6.654,25.94,25.94,0,0,0-3.485-.1C476.391-833,475.066-832.98,475.046-832.954Zm7.076,14.433a3.242,3.242,0,0,1,2.226,2.068,3.465,3.465,0,0,1-.007,2.107,3.271,3.271,0,0,1-2.22,2.054,3.263,3.263,0,0,1-3.9-2.213,3.8,3.8,0,0,1,.026-1.869A3.217,3.217,0,0,1,482.122-818.52Z" transform="translate(-263.196)" fill="#e6e6e6"/>
  </g>
</svg>
