<svg xmlns="http://www.w3.org/2000/svg" width="301.467" height="64.451" viewBox="0 0 301.467 64.451">
  <g id="playstation4" transform="translate(471.202 -1664.062)">
    <g id="Grupo_44" data-name="Grupo 44" transform="translate(-652 1640)">
      <path id="Caminho_102" data-name="Caminho 102" d="M335.361,71.1V41.126c0-6.115,2.854-10.494,8.941-10.494h37.547a.484.484,0,0,0,.451-.454V24.214a.406.406,0,0,0-.035-.152H336.356c-9.951,1.265-14.812,8.2-14.812,17.064V71.1c0,6.115-2.934,10.5-8.94,10.5H272.952a.434.434,0,0,0-.451.453v5.965a.522.522,0,0,0,.33.5H317.85C329.584,88.2,335.361,80.713,335.361,71.1Z" fill="#e6e6e6"/>
      <path id="Caminho_103" data-name="Caminho 103" d="M181.1,88.513h13.183a.522.522,0,0,0,.33-.5v-19.1c0-6.115,3.454-10.344,8.486-10.344h54.3c12.242,0,18.176-7.55,18.176-17.441,0-8.864-4.857-15.8-14.813-17.064H180.86c-.023.05-.062.089-.062.152v5.964a.4.4,0,0,0,.45.454h71.574c6.084,0,8.938,4.379,8.938,10.494s-2.854,10.495-8.938,10.495H196.194c-8.787,0-15.4,7.476-15.4,17.29v19.1A.475.475,0,0,0,181.1,88.513Z" fill="#e6e6e6"/>
      <g id="Grupo_43" data-name="Grupo 43">
        <path id="Caminho_104" data-name="Caminho 104" d="M393.714,74.649h60.465a.49.49,0,0,0,.451-.453V36.974a.684.684,0,0,0-1.131-.6L393.343,73.593c-.381.227-.531.453-.451.755C392.962,74.5,393.193,74.649,393.714,74.649Z" fill="none"/>
        <path id="Caminho_105" data-name="Caminho 105" d="M382.08,81.6h72.1a.342.342,0,0,1,.371.3v6.116a.437.437,0,0,0,.451.453h13a.43.43,0,0,0,.449-.453V82.049a.489.489,0,0,1,.451-.453h12.916a.434.434,0,0,0,.451-.452V75.1a.434.434,0,0,0-.451-.453H468.9a.49.49,0,0,1-.451-.453V30.632c0-3.555-1.321-5.819-3.542-6.57h-3.76a14.443,14.443,0,0,0-3.812,1.661L379.677,73.668c-3,1.887-4.057,4-3.3,5.586C376.972,80.614,378.7,81.6,382.08,81.6Zm11.263-8L453.5,36.37a.684.684,0,0,1,1.131.6V74.2a.489.489,0,0,1-.451.453H393.715c-.521,0-.752-.15-.822-.3C392.812,74.046,392.962,73.819,393.343,73.593Z" fill="#e6e6e6"/>
      </g>
    </g>
  </g>
</svg>
