<svg xmlns="http://www.w3.org/2000/svg" width="548.072" height="118.405" viewBox="0 0 548.072 118.405">
  <g id="playstation5" transform="translate(1 173)">
    <path id="Caminho_82" data-name="Caminho 82" d="M595.438,39.543c-22.978,0-34.2,14.12-34.2,32.369v50.777c0,11.331-7.612,21.374-19.012,21.374h-59.4a.85.85,0,0,0-.852.848V156.1a.85.85,0,0,0,.852.846h70.032c22.978,0,34.236-12.12,34.236-30.333v-54.7c0-11.366,8.3-19.52,19.7-19.52h59.74a.85.85,0,0,0,.852-.847V40.39a.85.85,0,0,0-.853-.847ZM455.987,39h-138.1a.85.85,0,0,0-.85.847V52.04a.884.884,0,0,0,.886.848H447.4c6.7,0,16.779,5.44,16.779,18.49S453.012,89.9,447.4,89.9H345.982C329.452,89.9,317,104.71,317,123.035v33.521a.815.815,0,0,0,.851.848h24.229a.85.85,0,0,0,.85-.848V123c0-11.334,8.57-20,17.971-20l95.014.721c22.952,0,34.161-14.123,34.161-32.343S478.867,39,455.917,39" transform="translate(-318 -212)" fill="#e6e6e6"/>
    <path id="Caminho_84" data-name="Caminho 84" d="M693.19,39.543H858.819q1.18,0,1.181.915V51.8q0,.826-1.181.749-139.122-.01-140.274,0t-1.44.78v27.4c0,2.045,1.753,8.638,8.47,8.638h105.3c12.86,0,34.2,8.961,34.2,33.742S842.7,157.089,833.59,157.089H693.19c-.69,0-1.018-.111-1.018-.947s-.044-10.678,0-11.2.219-.815,1.017-.82,116.613,0,123.891,0,22.051-5.542,22.051-21.006S823.929,103,820.058,103H708.828a16.261,16.261,0,0,1-11.853-5.62c-4.18-4.81-4.8-7.54-4.8-14V40.458q0-.915,1.017-.915Z" transform="translate(-318 -212)" fill="#e6e6e6" fill-rule="evenodd"/>
  </g>
</svg>
