<svg xmlns="http://www.w3.org/2000/svg" width="629.636" height="134.426" viewBox="0 0 629.636 134.426">
  <g id="playstation3" transform="translate(557.391 65.449)">
    <g id="Grupo_40" data-name="Grupo 40" transform="translate(-576 -85)">
      <g id="Grupo_39" data-name="Grupo 39">
        <path id="Caminho_95" data-name="Caminho 95" d="M421.659,19.551H339.068c-25.474,0-37.958,15.741-37.958,36.179v62.087c0,12.684-5.989,21.788-18.631,21.788h-72.24a.927.927,0,0,0-.925.9v12.53a.941.941,0,0,0,.925.941h81.768c25.464,0,37.979-15.67,37.979-36.118V55.73c0-12.694,5.943-21.818,18.657-21.818H421.66a.969.969,0,0,0,1.023-.921V20.482A.992.992,0,0,0,421.659,19.551Z" fill="#e6e6e6"/>
        <path id="Caminho_96" data-name="Caminho 96" d="M178.54,19.551H19.607a.964.964,0,0,0-1,.931V32.991a.958.958,0,0,0,1,.941H168.981c12.627,0,18.621,9.1,18.621,21.8,0,12.643-5.994,21.726-18.621,21.726H50.81c-18.351,0-32.2,15.415-32.2,35.862V153a.965.965,0,0,0,1,.973H46.535A.971.971,0,0,0,47.5,153V113.317c0-12.612,7.247-21.511,17.762-21.511H178.54c25.423,0,37.887-15.62,37.887-36.067C216.427,35.324,203.963,19.551,178.54,19.551Z" fill="#e6e6e6"/>
        <path id="Caminho_97" data-name="Caminho 97" d="M636.409,85.086a1.149,1.149,0,0,1,0-1.473c7.917-6.557,11.835-16.438,11.835-27.874,0-20.416-12.438-36.188-37.938-36.188H451.414a.945.945,0,0,0-.94.972V32.991a.931.931,0,0,0,.94.941h149.35c12.591,0,18.667,9.1,18.667,21.8,0,12.643-6.035,21.726-18.667,21.726h-.185l-149.165.031a.912.912,0,0,0-.94.961V90.906a.9.9,0,0,0,.94.9h149.35C617.232,92,619.4,108.038,619.4,116.242l.031,1.544c0,12.714-6.076,21.859-18.667,21.859H451.414a.9.9,0,0,0-.94.9v12.49a.931.931,0,0,0,.94.941H610.307c25.521,0,37.938-16.939,37.938-36.189v-1.544C648.244,103.968,644.326,92.246,636.409,85.086Z" fill="#e6e6e6"/>
      </g>
    </g>
  </g>
</svg>
