<svg xmlns="http://www.w3.org/2000/svg" width="718.205" height="116.631" viewBox="0 0 718.205 116.631">
  <path id="ps-vita" d="M715.752,114.432v-6.248h-.04l-2.388,6.248h-1.086l-2.389-6.248h-.037v6.248h-1.457v-8h2.252L712.8,112.1l2.176-5.667h2.23v8Zm-11.472,0h-1.552V107.7h-2.444v-1.262h6.442V107.7H704.28v6.734ZM654.332,91.355l-73.525-.026-12.692,24.3H551.4s52.1-98.644,54.18-102.013S613.594-.4,623.187.121s13.6,7.819,15.417,10.93,55.615,104.58,55.615,104.58H667.454ZM622.9,32.915c-2.324-4.667-7.6-5.816-10.455-.373-1.189,2.247-23.667,44.476-23.667,44.476l57.965,0Zm-94.148-18.9.085,100.591h-23.91V14.119l-45.388-.071V.077L574.4,0l-.052,14.133ZM419.671.708h24.313V115.254H419.671Zm-86.922,114.9c-9.573-.518-13.575-7.8-15.386-10.908S261.853.323,261.853.323h26.714L333.038,82.88c2.319,4.658,7.59,5.805,10.437.371C345.8,78.853,387.717.323,387.717.323H404.4S352.4,98.776,350.328,102.139,342.323,116.127,332.749,115.609Zm-140-84V84.045c0,19.174-8.632,31.137-32.558,31.137h-51.4V101h44.842c9.177,0,14.66-7.454,14.66-16.958V31.606C168.3,14.891,176.415.47,200.177.47H251.22V14.65H207.059C195.131,14.134,192.749,23.9,192.749,31.606ZM91.854,64.053h-55c-7.539,0-13.11,5.736-13.11,15.568v35.723H0V80.932C0,61.6,12.127,48.566,29.333,48.566H84.971c13.644-.519,16.9-7.291,16.9-17.124,0-7.538-3.771-17.829-16.9-16.793H0V.471H91.854c24.089,0,33.594,13.928,33.594,30.972C125.448,50.78,115.943,64.053,91.854,64.053Z" transform="translate(0.5 0.5)" fill="#e6e6e6" stroke="#e6e6e6" stroke-width="1" fill-rule="evenodd"/>
</svg>
