<svg xmlns="http://www.w3.org/2000/svg" width="281.025" height="77.058" viewBox="0 0 281.025 77.058">
  <g id="sega-32x" transform="translate(-9.495 -964.59)">
    <g id="text4153-0" transform="translate(-98.995 565.685)">
      <path id="path4383" d="M340.8,422.61l18.4-20.368h24.4L353.3,434.024l31.978,38.669H359l-18.99-22.532-19.876,22.532h-24.6l32.47-35.619-30.8-34.832h26.468L340.8,422.61Z" fill="#e6e6e6" stroke="#e6e6e6" stroke-width="1"/>
    </g>
    <path id="rect4147-7" d="M187.384,1017.91v23.263h-2.37V1017.91Z" fill="#e6e6e6" stroke="#e6e6e6" stroke-width="0.951"/>
    <path id="rect4147-2-16" d="M229.522,968.33H196.054v-2.218h33.468Z" fill="#e6e6e6" stroke="#e6e6e6" stroke-width="1.104"/>
    <path id="rect4147-2-6-9" d="M288.986,968.33H255.518v-2.218h33.468Z" fill="#e6e6e6" stroke="#e6e6e6" stroke-width="1.104"/>
    <path id="rect4147-2-1-5" d="M227.647,1039.94H194.179v-2.218h33.468Z" fill="#e6e6e6" stroke="#e6e6e6" stroke-width="1.104"/>
    <path id="rect4147-2-6-7-6" d="M289.968,1040.65H256.5v-2.218h33.468Z" fill="#e6e6e6" stroke="#e6e6e6" stroke-width="1.104"/>
    <g id="text4153-2-9" transform="translate(-98.995 565.685)">
      <path id="path4375" d="M283.908,472.833H203.323V455.22a75.829,75.829,0,0,1,11.611-10.036,67.839,67.839,0,0,1,11.217-6.3,119.537,119.537,0,0,1,11.512-4.329q5.707-1.87,10.725-3.149,5.117-1.378,8.954-2.657a26.909,26.909,0,0,0,6.1-2.755,4.288,4.288,0,0,0,2.263-3.641q0-2.558-3.149-4.428-3.149-1.968-10.823-1.968a63.125,63.125,0,0,0-11.119.984,78.383,78.383,0,0,0-10.627,2.46,82.223,82.223,0,0,0-9.544,3.641,62.374,62.374,0,0,0-7.872,4.329L204.7,411.336a56.546,56.546,0,0,1,7.773-4.034,69.121,69.121,0,0,1,10.627-3.641,109.915,109.915,0,0,1,13.48-2.558,130.491,130.491,0,0,1,16.727-.984,47.932,47.932,0,0,1,13.086,1.673,33.265,33.265,0,0,1,10.233,4.428,20.254,20.254,0,0,1,6.494,6.888,17.213,17.213,0,0,1,2.361,8.856,22.775,22.775,0,0,1-1.673,9.446,15.423,15.423,0,0,1-5.313,6.2,37.312,37.312,0,0,1-9.446,4.526q-5.707,1.87-13.775,4.133l-8.167,2.361q-4.428,1.279-8.364,2.558-3.837,1.279-6.789,2.46a9.437,9.437,0,0,0-3.444,1.968h55.4v17.219Z" fill="#e6e6e6" stroke="#e6e6e6" stroke-width="1"/>
    </g>
    <g id="text4153-1-7" transform="translate(-98.995 565.685)">
      <path id="path4372" d="M135.275,443.781V428.825h22.04a62.113,62.113,0,0,0,8.56-.492,22.352,22.352,0,0,0,5.51-1.378,6.649,6.649,0,0,0,3.05-2.165,5.058,5.058,0,0,0,.886-2.952q0-3.149-4.329-4.821-4.231-1.771-14.661-1.771a65.937,65.937,0,0,0-10.233.787,77.076,77.076,0,0,0-9.446,2.066,55.071,55.071,0,0,0-7.872,2.755,50.248,50.248,0,0,0-5.9,2.853l-6.986-16.727a42.881,42.881,0,0,1,6.4-2.361,89.617,89.617,0,0,1,9.839-2.46q5.608-1.181,12.1-1.968a108.653,108.653,0,0,1,13.087-.787,75.805,75.805,0,0,1,13.579,1.181,40.235,40.235,0,0,1,11.414,3.739,22.107,22.107,0,0,1,7.97,6.3,14.01,14.01,0,0,1,2.952,8.954,15.512,15.512,0,0,1-1.082,5.9,16.608,16.608,0,0,1-2.657,4.723,16.964,16.964,0,0,1-3.837,3.345,17.384,17.384,0,0,1-4.133,2.066,16.838,16.838,0,0,1,6.986,2.066,15.444,15.444,0,0,1,4.625,4.034,13.364,13.364,0,0,1,2.46,4.92,16.148,16.148,0,0,1,.787,4.723q0,12.1-10.43,17.613-10.331,5.412-31.683,5.412a91.883,91.883,0,0,1-13.579-.984,110.44,110.44,0,0,1-12-2.46,90.029,90.029,0,0,1-9.741-3.149,42.14,42.14,0,0,1-6.494-3.247l7.675-16.137a26.9,26.9,0,0,0,6.3,3.247q4.526,1.673,9.938,3.149t10.725,2.46a52.235,52.235,0,0,0,9.052.984,67.778,67.778,0,0,0,7.478-.394,30.4,30.4,0,0,0,6.3-1.279,12.178,12.178,0,0,0,4.329-2.263,4.191,4.191,0,0,0,1.673-3.345q0-4.231-4.428-5.707-4.329-1.476-14.169-1.476h-22.04Z" fill="#e6e6e6" stroke="#e6e6e6" stroke-width="1"/>
    </g>
    <path id="rect4147-24-5" d="M17.329,969.982l9.1,21.409-2.181.927-9.1-21.409Z" fill="#e6e6e6" stroke="#e6e6e6" stroke-width="0.951"/>
    <path id="rect4147-24-7-0" d="M21.509,1010.78l-11.366,20.3,2.068,1.158,11.366-20.3Z" fill="#e6e6e6" stroke="#e6e6e6" stroke-width="0.951"/>
    <path id="rect4147-0-6" d="M38.759,990.411v23.263h-2.37V990.411Z" fill="#e6e6e6" stroke="#e6e6e6" stroke-width="0.951"/>
    <path id="rect4147-24-6-7" d="M106.711,974.2l9.1,21.409-2.181.927-9.1-21.409Z" fill="#e6e6e6" stroke="#e6e6e6" stroke-width="0.951"/>
  </g>
</svg>
