<svg xmlns="http://www.w3.org/2000/svg" width="554.064" height="397.4" viewBox="0 0 554.064 397.4">
  <g id="snes" transform="translate(1.906 -1.609)">
    <path id="path3324" d="M-1.906,58.013l.145-2.879.427-2.843.7-2.8.969-2.732L1.57,44.023l1.492-2.658L4.8,38.782l1.977-2.547,2.211-2.473,2.441-2.4L14.086,29l2.872-2.252,3.083-2.213,3.276-2.1,3.474-2.03,3.659-1.956L34.284,16.6l4.01-1.771,4.174-1.663,4.331-1.55,4.484-1.439L55.907,8.81l4.767-1.218,4.89-1.144,5.02-1,5.13-.887,5.245-.738L86.3,3.2l5.441-.48,5.53-.368,5.611-.223,5.683-.072c61.121,0,110.562,25.063,110.562,55.957,0,31-49.455,55.957-110.562,55.957C47.551,113.969-1.906,89.017-1.906,58.013Z" transform="translate(0 178.609)" fill="#e6e6e6" stroke="#e6e6e6" stroke-miterlimit="10.433"/>
    <path id="path3326" d="M-1.4,61.1l.151-3.023.451-2.985.738-2.943L.961,49.256l1.295-2.843,1.567-2.791,1.826-2.73,2.077-2.668L10.052,35.6l2.566-2.511,2.794-2.473,3.019-2.4,3.238-2.29,3.446-2.213,3.651-2.141,3.842-2.03,4.031-1.956,4.216-1.845,4.384-1.735,4.552-1.663,4.714-1.512L59.365,9.4,64.372,8.1l5.141-1.182,5.279-1.033,5.388-.923,5.5-.812,5.647-.627,5.721-.517,5.8-.406,5.906-.221,5.979-.074c64.115,0,116.2,26.319,116.2,58.793,0,32.44-52.083,58.785-116.2,58.785C50.58,119.885-1.4,93.555-1.4,61.1Z" transform="translate(203.743 279.124)" fill="#e6e6e6" stroke="#e6e6e6" stroke-miterlimit="10.433"/>
    <path id="path3328" d="M107.572,211.374l5.211-.332,5.141-.591,5.062-.812,4.979-1.069,4.882-1.293,4.8-1.514,4.688-1.771,4.577-1.956,4.467-2.179,4.354-2.362,4.208-2.583,4.1-2.732,3.95-2.953,3.8-3.136,3.655-3.285,3.47-3.434,3.359-3.617,3.136-3.8,2.991-3.914,2.8-4.059,2.621-4.171,2.4-4.318,2.215-4.467,1.992-4.541,1.809-4.686,1.588-4.762,1.329-4.873,1.144-4.981.884-5.058.629-5.13.368-5.2.149-5.241A104.945,104.945,0,0,0-1.55,105.254c1.354-.072,2.711-.072,4.167-.072A104.928,104.928,0,0,1,107.557,210.12v1.254" transform="translate(142.401 0)" fill="#e6e6e6" stroke="#e6e6e6" stroke-miterlimit="10.433"/>
    <path id="path3330" d="M105.161,206.221l5.094-.332,4.981-.555,4.947-.81,4.835-1.035,4.762-1.291,4.65-1.478,4.577-1.7,4.467-1.92,4.354-2.1,4.208-2.324,4.135-2.511,3.948-2.658,3.84-2.879,3.691-3.028,3.58-3.21,3.4-3.359,3.213-3.544,3.1-3.653,2.879-3.84,2.732-3.948,2.547-4.061,2.324-4.208,2.179-4.356,1.956-4.429,1.735-4.541,1.514-4.65,1.329-4.762,1.07-4.835.886-4.909.591-5.02.369-5.058.148-5.13A102.119,102.119,0,0,0-1.033,102.833c1.329-.074,2.7-.074,4.061-.074A102.229,102.229,0,0,1,105.161,204.966v1.254" transform="translate(348.961 108.837)" fill="#e6e6e6" stroke="#e6e6e6" stroke-miterlimit="10.433"/>
  </g>
</svg>
