<svg xmlns="http://www.w3.org/2000/svg" width="122.365" height="58.514" viewBox="0 0 122.365 58.514">
  <g id="wii" transform="translate(-5.967 -5.763)">
    <g id="_56610944">
      <path id="_56604928" d="M90.4,12.433A6.8,6.8,0,0,0,97.264,19.1a6.866,6.866,0,0,0,7.147-6.671,6.866,6.866,0,0,0-7.147-6.671A6.733,6.733,0,0,0,90.4,12.433Z" fill="#e6e6e6"/>
      <path id="_56605920" d="M103.363,63.9V25.68H91.546V63.9Z" fill="#e6e6e6"/>
      <path id="_56605848" d="M114.322,12.433a7.013,7.013,0,0,0,14.009,0,7.013,7.013,0,0,0-14.009,0Z" fill="#e6e6e6"/>
      <path id="_56607936" d="M127.283,63.9V25.68H115.466V63.9Z" fill="#e6e6e6"/>
      <path id="_56607472" d="M72.771,9l-10.292,40.5s-7.91-30.4-9.244-34.785C52,10.432,49.328,8.526,45.611,8.526c-3.812,0-6.385,1.906-7.719,6.194-1.239,4.384-9.149,34.785-9.149,34.785L18.355,9H5.966S17.879,52.173,19.5,57.224c1.239,3.907,4.288,7.052,8.672,7.052,5.146,0,7.529-3.717,8.577-7.052C37.892,53.793,45.611,25.3,45.611,25.3s7.719,28.495,8.768,31.925c1.144,3.335,3.526,7.052,8.577,7.052,4.479,0,7.433-3.145,8.767-7.052C73.343,52.173,85.256,9,85.256,9H72.771Z" fill="#e6e6e6"/>
    </g>
  </g>
</svg>
