<svg xmlns="http://www.w3.org/2000/svg" width="154.613" height="24.709" viewBox="0 0 154.613 24.709">
  <g id="xbox-old" transform="translate(-19.166 -132.859)">
    <path id="Caminho_125" data-name="Caminho 125" d="M173.779,132.859h-.4l-.476,1.506a.633.633,0,0,0-.118.317,1.758,1.758,0,0,1-.12-.278l-.516-1.545h-.4V135H172v-1.822l.633,1.822h.237l.635-1.783V135h.277v-2.14Zm-3.011.279h.674v-.279h-1.664v.279h.713V135h.277v-1.861Zm-9.8-.275-11.931,9.655-11.873-9.655h-6.715l15.289,12.353-15.289,12.351h6.715l11.873-9.713,11.931,9.713h6.655L152.4,145.216l15.23-12.353Zm-32.5,12.353c0-5.516-1.439-9.594-4.2-12.353h-24.4c-2.879,2.759-4.318,6.837-4.318,12.353s1.439,9.593,4.318,12.352h24.4C127.033,154.809,128.472,150.672,128.472,145.216Zm-4.078,0a15.7,15.7,0,0,1-1.2,5.757l-1.139,2.577H102.03l-1.14-2.577a14.6,14.6,0,0,1-1.2-5.757,15.725,15.725,0,0,1,2.339-8.275h20.026A15.724,15.724,0,0,1,124.394,145.216Zm-35.075,1.019V144.2l1.8-.962c-.42-4.616-1.8-8.093-4.137-10.373h-24.4c-2.339,2.22-3.778,5.7-4.138,10.313H54.482v4.078h3.957c.36,4.616,1.8,8.034,4.138,10.312h24.4c2.338-2.339,3.717-5.755,4.137-10.312l-1.8-1.019Zm-4.557-9.295a17.58,17.58,0,0,1,2.218,6.236h-24.4a16.491,16.491,0,0,1,2.218-6.236H84.762Zm2.218,10.315a17.867,17.867,0,0,1-2.218,6.295H64.795a16.741,16.741,0,0,1-2.218-6.295Z" fill="#e6e6e6"/>
    <path id="Caminho_126" data-name="Caminho 126" d="M41.052,145.216l15.229-12.353H49.565l-11.872,9.655-11.932-9.655H19.166l15.17,12.353-15.17,12.351h6.595l11.932-9.713,11.872,9.713h6.716L41.052,145.216Z" fill="#e6e6e6"/>
  </g>
</svg>
